# xmcd
#
# Track frame offsets:
#	150
#	8035
#	26410
#	35562
#	51222
#	58315
#	68245
#	76887
#	84447
#	101677
#	124225
#	133215
#	148182
#	163345
#	188175
#	204730
#	214317
#	227390
#
# Disc length: 3186 seconds
#
# Revision: 3
# Processed by: cddbd v1.5.1PL2 Copyright (c) Steve Scherf et al.
# Submitted via: EasyCDDAExtractor 8.1.4.1
#
DISCID=090c7012
DTITLE=Various Artist - Celtic Tradition CD1
DYEAR=1999
DGENRE=Celtic
TTITLE0=Clair Hamilton - Greensleeves
TTITLE1=Kate Northrop - Ocean Of Grass
TTITLE2=Clair Hamilton - Annie Laurie
TTITLE3=Mac Donald - An Ubhal As Airde (The Highest Apple)
TTITLE4=Clair Hamilton - Lo How A Rose E Er Blooming
TTITLE5=Clair Hamilton - The Lark In The Clear Air
TTITLE6=Clair Hamilton - Loch Lomond
TTITLE7=Clair Hamilton - Oxen And Sheep
TTITLE8=Kate Northrop - Last Rose Of Summer
TTITLE9=Clair Hamilton - Skye Boat Song
TTITLE10=Clair Hamilton - The Lowlands Of Holland
TTITLE11=Clair Hamilton - I´ll Take You Home Again Kathleen
TTITLE12=Williamson - The Flower Of Scotland
TTITLE13=Kate Northrop - Storm Clouds
TTITLE14=Clair Hamilton - She Moved Through The Fair
TTITLE15=Various Artist - The Sally Gardens
TTITLE16=Clair Hamilton - My Lagan Love
TTITLE17=Various Artist - Bonus Track
EXTD=YEAR: 1999 ID3G: 88
EXTT0=
EXTT1=
EXTT2=
EXTT3=
EXTT4=
EXTT5=
EXTT6=
EXTT7=
EXTT8=
EXTT9=
EXTT10=
EXTT11=
EXTT12=
EXTT13=
EXTT14=
EXTT15=
EXTT16=
EXTT17=
PLAYORDER=
